<svg id="Capa_1" enable-background="new 0 0 512 512" height="512" viewBox="0 0 512 512" width="512" xmlns="http://www.w3.org/2000/svg" xmlns:xlink="http://www.w3.org/1999/xlink"><linearGradient id="SVGID_1_" gradientUnits="userSpaceOnUse" x1="256" x2="256" y1="512" y2="0"><stop offset="0" stop-color="#fd3a84"/><stop offset="1" stop-color="#ffa68d"/></linearGradient><g><g><g><path d="m437 450c8.284 0 15-6.716 15-15s-6.716-15-15-15-15 6.716-15 15 6.716 15 15 15zm-362-60c8.284 0 15-6.716 15-15s-6.716-15-15-15-15 6.716-15 15 6.716 15 15 15zm0 60c8.284 0 15-6.716 15-15s-6.716-15-15-15-15 6.716-15 15 6.716 15 15 15zm422-210h-120c-8.284 0-15 6.716-15 15v105h-63.58c-4.527-12.764-14.656-22.893-27.42-27.42v-63.418c67.406-7.486 120-64.793 120-134.162 0-74.439-60.561-135-135-135s-135 60.561-135 135c0 69.369 52.594 126.676 120 134.162v63.418c-12.764 4.527-22.893 14.656-27.42 27.42h-63.58v-105c0-8.284-6.716-15-15-15h-120c-8.284 0-15 6.716-15 15v242c0 8.284 6.716 15 15 15h120c8.284 0 15-6.716 15-15v-107h63.58c6.192 17.458 22.865 30 42.42 30s36.228-12.542 42.42-30h63.58v107c0 8.284 6.716 15 15 15h120c8.284 0 15-6.716 15-15v-242c0-8.284-6.716-15-15-15zm-377 242h-90v-152h90zm0-182h-90v-30h90zm239.924-180h-44.614c-3.114-34.47-16.311-64.553-28.067-85.254 38.064 11.887 66.884 44.903 72.681 85.254zm-44.614 30h44.614c-5.797 40.351-34.617 73.367-72.681 85.254 11.756-20.701 24.953-50.784 28.067-85.254zm-59.284-108.976c10.7 17.016 25.501 45.763 29.138 78.976h-58.32c3.657-33.098 18.487-61.917 29.182-78.976zm-103.95 108.976h44.614c3.114 34.47 16.311 64.553 28.067 85.254-38.064-11.887-66.884-44.903-72.681-85.254zm44.614-30h-44.614c5.797-40.351 34.617-73.367 72.681-85.254-11.756 20.701-24.953 50.784-28.067 85.254zm30.146 30h58.32c-3.657 33.098-18.486 61.917-29.181 78.976-10.701-17.016-25.502-45.763-29.139-78.976zm29.164 240c-8.271 0-15-6.729-15-15s6.729-15 15-15 15 6.729 15 15-6.729 15-15 15zm226 92h-90v-152h90zm0-182h-90v-30h90zm-45 90c8.284 0 15-6.716 15-15s-6.716-15-15-15-15 6.716-15 15 6.716 15 15 15z" fill="url(#SVGID_1_)"/></g></g></g></svg>