<svg id="Capa_1" enable-background="new 0 0 512 512" height="512" viewBox="0 0 512 512" width="512" xmlns="http://www.w3.org/2000/svg" xmlns:xlink="http://www.w3.org/1999/xlink"><linearGradient id="SVGID_1_" gradientUnits="userSpaceOnUse" x1="256" x2="256" y1="496" y2="16"><stop offset="0" stop-color="#fd5900"/><stop offset="1" stop-color="#ffde00"/></linearGradient><g><g><g><path d="m76 106c8.284 0 15-6.716 15-15s-6.716-15-15-15-15 6.716-15 15 6.716 15 15 15zm421-90h-482c-8.284 0-15 6.716-15 15v450c0 8.284 6.716 15 15 15h482c8.284 0 15-6.716 15-15v-450c0-8.284-6.716-15-15-15zm-15 450h-452v-300h452zm0-330h-452v-90h452zm-226 180h180c8.284 0 15-6.716 15-15s-6.716-15-15-15h-180c-8.284 0-15 6.716-15 15s6.716 15 15 15zm0-60h180c8.284 0 15-6.716 15-15s-6.716-15-15-15h-180c-8.284 0-15 6.716-15 15s6.716 15 15 15zm-180 60h120c8.284 0 15-6.716 15-15v-90c0-8.284-6.716-15-15-15h-120c-8.284 0-15 6.716-15 15v90c0 8.284 6.716 15 15 15zm15-90h90v60h-90zm-15 210h360c8.284 0 15-6.716 15-15v-60c0-8.284-6.716-15-15-15h-360c-8.284 0-15 6.716-15 15v60c0 8.284 6.716 15 15 15zm15-60h330v30h-330zm45-270c8.284 0 15-6.716 15-15s-6.716-15-15-15-15 6.716-15 15 6.716 15 15 15zm60 0c8.284 0 15-6.716 15-15s-6.716-15-15-15-15 6.716-15 15 6.716 15 15 15zm90 0h150c8.284 0 15-6.716 15-15s-6.716-15-15-15h-150c-8.284 0-15 6.716-15 15s6.716 15 15 15z" fill="url(#SVGID_1_)"/></g></g></g></svg>