<svg id="Capa_1" enable-background="new 0 0 512 512" height="512" viewBox="0 0 512 512" width="512" xmlns="http://www.w3.org/2000/svg" xmlns:xlink="http://www.w3.org/1999/xlink"><linearGradient id="SVGID_1_" gradientUnits="userSpaceOnUse" x1="256" x2="256" y1="512" y2="0"><stop offset="0" stop-color="#5558ff"/><stop offset="1" stop-color="#00c0ff"/></linearGradient><g><g><g><path d="m236.606 35.393c-5.857-5.857-15.355-5.857-21.213 0-5.858 5.858-5.858 15.355 0 21.213l4.394 4.394h-23.787c-41.355 0-75 33.645-75 75v60c0 8.284 6.716 15 15 15s15-6.716 15-15v-60c0-24.813 20.187-45 45-45h23.787l-4.393 4.393c-5.858 5.858-5.858 15.355 0 21.213 2.928 2.929 6.767 4.394 10.606 4.394s7.678-1.465 10.606-4.393l30-30c5.938-5.938 5.747-15.466 0-21.213zm18.394 206.607h-240c-8.284 0-15 6.716-15 15v180c0 8.284 6.716 15 15 15h70.789l-10.34 41.362c-1.121 4.481-.114 9.229 2.729 12.869 2.842 3.641 7.203 5.769 11.822 5.769h90c4.619 0 8.98-2.128 11.823-5.769s3.85-8.388 2.729-12.869l-10.341-41.362h70.789c8.284 0 15-6.716 15-15v-180c0-8.284-6.716-15-15-15zm-145.788 240 7.5-30h36.577l7.5 30zm130.788-60h-210v-150h210zm196-60c-8.284 0-15 6.716-15 15v30c0 24.813-20.187 45-45 45h-23.787l4.394-4.394c5.858-5.858 5.858-15.355 0-21.213-5.857-5.858-15.355-5.858-21.213 0l-29.998 29.998c-5.718 5.714-5.95 15.272 0 21.218l29.998 29.998c5.857 5.857 15.355 5.858 21.213 0s5.858-15.355 0-21.213l-4.394-4.394h23.787c41.355 0 75-33.645 75-75v-30c0-8.284-6.716-15-15-15zm61-362h-180c-8.284 0-15 6.716-15 15v300c0 8.284 6.716 15 15 15h180c8.284 0 15-6.716 15-15v-300c0-8.284-6.716-15-15-15zm-15 300h-150v-270h150zm-105-30h60c8.284 0 15-6.716 15-15s-6.716-15-15-15h-60c-8.284 0-15 6.716-15 15s6.716 15 15 15zm30-180c8.284 0 15-6.716 15-15s-6.716-15-15-15-15 6.716-15 15 6.716 15 15 15z" fill="url(#SVGID_1_)"/></g></g></g></svg>