<svg id="Capa_1" enable-background="new 0 0 512 512" height="512" viewBox="0 0 512 512" width="512" xmlns="http://www.w3.org/2000/svg" xmlns:xlink="http://www.w3.org/1999/xlink"><linearGradient id="SVGID_1_" gradientUnits="userSpaceOnUse" x1="256" x2="256" y1="512" y2="0"><stop offset="0" stop-color="#00b59c"/><stop offset="1" stop-color="#9cffac"/></linearGradient><g><g><g><path d="m308.911 224.771c-32.143-18.127-73.679-18.127-105.821 0-7.216 4.069-9.766 13.218-5.697 20.434 4.07 7.216 13.218 9.767 20.434 5.697 22.832-12.877 53.515-12.877 76.347 0 7.217 4.07 16.365 1.518 20.434-5.697 4.069-7.216 1.518-16.365-5.697-20.434zm-22.911 196.229h-60c-8.284 0-15 6.716-15 15s6.716 15 15 15h60c8.284 0 15-6.716 15-15s-6.716-15-15-15zm-38.686-117.842c4.627-2.617 12.744-2.617 17.371 0 7.26 4.105 16.392 1.487 20.44-5.673 4.078-7.211 1.538-16.363-5.673-20.44-13.81-7.809-33.097-7.809-46.906 0-7.211 4.078-9.751 13.229-5.673 20.44 4.079 7.212 13.23 9.751 20.441 5.673zm143.686-303.158h-270c-8.284 0-15 6.716-15 15v482c0 8.284 6.716 15 15 15h270c8.284 0 15-6.716 15-15v-482c0-8.284-6.716-15-15-15zm-15 482h-240v-452h240zm-120-391c8.284 0 15-6.716 15-15s-6.716-15-15-15-15 6.716-15 15 6.716 15 15 15zm-67.636 107.641c20.479-11.541 43.867-17.641 67.636-17.641s47.157 6.1 67.636 17.641c7.217 4.067 16.365 1.513 20.432-5.704s1.514-16.365-5.704-20.432c-24.965-14.069-53.446-21.505-82.364-21.505s-57.399 7.436-82.364 21.505c-7.217 4.067-9.771 13.215-5.704 20.432 4.068 7.217 13.215 9.771 20.432 5.704z" fill="url(#SVGID_1_)"/></g></g></g></svg>